<?xml version="1.0" encoding="utf-8"?>
<!-- Generator: Adobe Illustrator 23.0.3, SVG Export Plug-In . SVG Version: 6.00 Build 0)  -->
<svg version="1.1" xmlns="http://www.w3.org/2000/svg" xmlns:xlink="http://www.w3.org/1999/xlink" x="0px" y="0px"
	 viewBox="0 0 1279 315" style="enable-background:new 0 0 1279 315;" xml:space="preserve">
<style type="text/css">
	.st0{fill:#184070;}
	.st1{fill:#F8DE8A;}
	.st2{fill:#FEF9CE;}
</style>
<g id="square_1_">
	<path id="square" class="st0" d="M26.4,0h263.3c14.3,0,25.8,11.6,25.8,25.8v263.3c0,14.3-11.6,25.8-25.8,25.8H26.4
		c-14.3,0-25.8-11.6-25.8-25.8l0,0V25.8C0.6,11.6,12.1,0,26.4,0L26.4,0z"/>
</g>
<g id="leg_-_outer_back">
	<path id="left_-_outer_back" class="st1" d="M179.6,80.2c-0.6-1.4-0.6-3,0-4.4l2.8-6.1c0.7-1.6,2.2-2.6,3.9-2.6h2.3
		c1.7-0.1,3.3,1,4,2.6l77.6,172.2c1.1,2,0.3,4.5-1.7,5.5c-0.7,0.4-1.4,0.5-2.2,0.5H257c-1.7,0-3.3-1-3.9-2.6L179.6,80.2z"/>
</g>
<g id="leg_-_inner_back_1_">
	<path id="leg_-_inner_back" class="st1" d="M167.3,143.4l-9.1,20.5l36.3,81.5c0.7,1.6,2.2,2.6,3.9,2.6h9.3c2.3,0.2,4.2-1.5,4.4-3.8
		c0.1-0.8-0.1-1.5-0.5-2.2L167.3,143.4z"/>
</g>
<g id="leg_-_outer_front_1_">
	<path id="leg_-_outer_front" class="st2" d="M136.4,75.8l-2.8-6.1c-0.7-1.6-2.3-2.6-4-2.6h-2.3c-1.7,0-3.3,1-3.9,2.6L45.9,241.8
		c-1.1,2-0.3,4.5,1.7,5.5c0.7,0.4,1.5,0.5,2.3,0.5h9.3c1.7,0,3.2-1,3.9-2.5l73.4-165.1C137.2,78.8,137.2,77.2,136.4,75.8"/>
</g>
<g id="leg_-_inner_front_1_">
	<path id="leg_-_inner_front" class="st2" d="M195.4,75.8l-2.8-6.1c-0.7-1.6-2.2-2.6-3.9-2.6h-2.3c-1.7,0-3.3,1-3.9,2.6l-77.6,172.2
		c-1.1,2-0.3,4.5,1.7,5.5c0.7,0.4,1.5,0.5,2.3,0.5h9.2c1.7,0,3.3-1,4-2.6l73.3-165.1C196.1,78.8,196.1,77.2,195.4,75.8"/>
</g>
<g id="l_1_">
	<path id="l" class="st0" d="M1157.8,65.1c-0.3-3,2.2-5.7,5.2-5.7c0.3,0,0.5,0,0.8,0h26.6c3-0.3,5.4,1.6,5.7,4.6c0,0.3,0,0.8,0,1.1
		v153.2h76.6c1.6,0,3,0.5,4.1,1.6c1.1,1.1,1.9,2.7,1.6,4.3v23.9c0.3,3-1.6,5.4-4.6,5.7c-0.3,0-0.8,0-1.1,0h-109.2
		c-2.7,0.3-5.4-1.6-5.7-4.3c0-0.5,0-1.1,0-1.4V65.1z"/>
</g>
<g id="i_1_">
	<path id="i" class="st0" d="M1049.9,248.8V65.1c0-3.8,1.6-5.4,5.2-5.4h28.3c3.3,0,4.9,1.9,4.9,5.4v183.7c0,3.5-1.6,5.2-4.9,5.2
		h-28.3c-2.4,0.3-4.9-1.4-5.2-3.8C1049.9,249.6,1049.9,249.3,1049.9,248.8z"/>
</g>
<g id="a_2_">
	<path id="a_1_" class="st0" d="M980.1,63.8c-2.2-1.6-4.6-2.5-7.3-2.5h-11.4c-2.7-0.3-5.2,0.5-7.1,2.5c-1.6,2.2-2.5,4.6-2.5,7.3
		l-1.6,19.6c-2.7-4.3-6-8.4-9.5-12.2c-3.8-3.8-7.9-7.3-12.5-10.3c-4.9-3.3-10.3-5.7-16-7.3c-6.8-1.9-14.1-3-21.2-2.7
		c-25.5-0.3-50.3,10.3-67.6,29.3c-8.4,9.2-15,20.1-19.3,31.8c-9.2,25.3-9.2,53,0,78.2c4.3,11.7,11.1,22.6,19.6,31.8
		c8.4,9,18.5,16.3,29.9,21.2c12,5.2,24.7,7.6,37.8,7.6c15.8,0,28.2-3.3,37.2-9.5c8.7-6.2,16.3-13.8,22-22.8v18.5
		c0,6.5,3.3,9.8,9.8,10.1h12.5c2.7,0,5.2-0.8,7.3-2.5c1.9-1.4,3-3.8,3-6.2V71.1C983.1,68.4,982,65.7,980.1,63.8z M946.9,185.5
		c-2.4,7.6-6.5,14.7-11.7,20.9c-5.2,5.7-11.7,10.6-18.8,13.9c-8.2,3.5-16.6,5.4-25.3,5.2c-8.4,0-17.1-1.9-25-5.4
		c-7.6-3.5-14.1-8.4-19.6-14.7s-9.8-13.6-12.5-21.5c-3-8.2-4.3-17.1-4.3-25.8s1.4-17.4,4.6-25.3c2.7-7.9,6.8-15.2,12.2-21.5
		s12-11.4,19.3-14.7c8.2-3.8,16.8-5.4,25.5-5.4c8.7-0.3,17.7,1.6,25.5,5.4c7.1,3.5,13.6,8.4,18.5,14.7c5.2,6.5,9,13.9,11.4,21.7
		C952.1,150.1,952.1,168.3,946.9,185.5z"/>
</g>
<g id="v_1_">
	<path id="v" class="st0" d="M638,68.1l53.8,138.6l53.8-138.8c1.9-4.3,6-7.1,10.6-6.8h16.6c5.4,0,8.2,2.2,8.2,6.2
		c0,1.1-0.3,2.2-0.5,3.3c-0.3,0.8-0.5,1.9-1.1,2.4l-71.5,173.3c-0.8,2.4-2.4,4.6-4.6,6c-1.9,1.1-4.1,1.4-6,1.4h-11.4
		c-2.4,0.3-4.9-0.3-7.1-1.6c-1.4-1.6-2.4-3.8-3.3-6L604.6,75.2c-0.3-0.5-0.5-1.4-1.1-3c-0.5-1.6-0.8-3.5-0.8-5.4
		c0-4.1,2.7-6.2,8.2-6.2h16.8C632.3,61,636.4,64,638,68.1z"/>
</g>
<g id="a_3_">
	<path id="a" class="st0" d="M559.2,63.8c-2.2-1.6-4.6-2.5-7.3-2.5h-11.4c-2.7-0.3-5.2,0.5-7.1,2.5c-1.6,2.2-2.4,4.6-2.4,7.3
		l-1.6,19.6c-2.7-4.3-6-8.4-9.5-12.2c-3.8-3.8-7.9-7.3-12.5-10.3c-4.9-3.3-10.3-5.7-16-7.3c-6.8-1.9-14.1-3-21.2-2.7
		c-25.8-0.3-50.5,10.3-67.9,29.3c-8.4,9.2-14.9,20.1-19.3,31.8c-9.2,25.3-9.2,53,0,78.2c4.3,11.7,11.1,22.6,19.6,31.8
		c8.4,9,18.5,16.3,29.9,21.2c12,5.2,24.7,7.6,37.8,7.6c16,0,28.2-3.3,37.2-9.5c8.7-6.2,16.3-13.8,22-22.8v18.5
		c0,6.5,3.3,9.8,9.8,10.1h12.8c2.7,0,5.2-0.8,7.3-2.5c1.9-1.4,3-3.8,3-6.2V71.1C562.5,68.4,561.4,65.7,559.2,63.8z M525.8,185.2
		c-2.4,7.9-6.5,14.9-11.7,21.2c-5.2,6-11.7,10.6-18.8,13.9c-7.9,3.5-16.3,5.4-25,5.2c-8.7,0-17.4-1.9-25.3-5.4
		c-7.6-3.3-14.1-8.2-19.6-14.4c-5.4-6.2-9.8-13.6-12.5-21.5c-3-8.1-4.3-17.1-4.3-25.8c0-9,1.4-17.7,4.6-25.8
		c2.7-7.9,6.8-15.2,12.2-21.5c5.4-6.2,12-11.4,19.3-14.7c7.9-3.8,16.8-5.4,25.5-5.4c8.7-0.3,17.7,1.6,25.5,5.4
		c7.1,3.5,13.3,8.4,18.5,14.7c5.2,6.5,9,13.9,11.4,21.7C531,149.9,531,168.1,525.8,185.2z"/>
</g>
</svg>
