<svg xmlns="http://www.w3.org/2000/svg" viewBox="0 0 700 304"><path d="M90,85.22H201.63a10.94,10.94,0,0,1,10.94,10.94V207.84a10.94,10.94,0,0,1-10.94,10.94H90A10.94,10.94,0,0,1,79,207.84h0V96.16A10.94,10.94,0,0,1,90,85.22Z" fill="#184070"/><path d="M154.93,119.24a2.38,2.38,0,0,1,0-1.87l1.19-2.59a1.8,1.8,0,0,1,1.65-1.1h1a1.79,1.79,0,0,1,1.7,1.1l32.91,73a1.7,1.7,0,0,1-.72,2.33,1.78,1.78,0,0,1-.93.21h-3.94a1.75,1.75,0,0,1-1.65-1.1ZM149.71,146l-3.86,8.69,15.4,34.57a1.8,1.8,0,0,0,1.65,1.1h3.94a1.72,1.72,0,0,0,1.87-1.61,1.45,1.45,0,0,0-.21-.93Z" fill="#f8de8a"/><path d="M136.61,117.37l-1.19-2.59a1.86,1.86,0,0,0-1.7-1.1h-1a1.75,1.75,0,0,0-1.65,1.1l-32.87,73a1.7,1.7,0,0,0,.72,2.33,1.93,1.93,0,0,0,1,.21h3.94a1.83,1.83,0,0,0,1.65-1.06l31.13-70a2,2,0,0,0,0-1.87m25,0-1.19-2.59a1.8,1.8,0,0,0-1.65-1.1h-1a1.75,1.75,0,0,0-1.65,1.1l-32.91,73a1.7,1.7,0,0,0,.72,2.33,1.93,1.93,0,0,0,1,.21h3.9a1.86,1.86,0,0,0,1.7-1.1l31.09-70a2.07,2.07,0,0,0,0-1.87" fill="#fef9ce"/><path d="M569.81,112.83a2.24,2.24,0,0,1,2.19-2.42h11.64a2.13,2.13,0,0,1,2.42,2v65.45h32.5a2.35,2.35,0,0,1,1.73.69,2.2,2.2,0,0,1,.69,1.84V190.5a2.13,2.13,0,0,1-2,2.42H572.23a2.19,2.19,0,0,1-2.42-1.84V112.83Zm-45.75,77.9v-77.9c0-1.61.69-2.3,2.19-2.3h12c1.38,0,2.07.81,2.07,2.3v77.9c0,1.5-.69,2.19-2.07,2.19h-12a2,2,0,0,1-2.19-1.61Zm-93.34-38.49a32.13,32.13,0,0,0,1.84,10.95,27.78,27.78,0,0,0,5.3,9.1,24.58,24.58,0,0,0,8.3,6.22,26.22,26.22,0,0,0,10.6,2.3,24.13,24.13,0,0,0,18.67-8.07,27,27,0,0,0,5-8.87,38.47,38.47,0,0,0,0-22.24,28.29,28.29,0,0,0-4.84-9.22,22.89,22.89,0,0,0-7.84-6.22,23.52,23.52,0,0,0-10.83-2.3A25.45,25.45,0,0,0,446,126.2a23.8,23.8,0,0,0-8.18,6.22,27.48,27.48,0,0,0-5.19,9.1A28.08,28.08,0,0,0,430.72,152.24Zm51.16,36.53v-7.84a35.52,35.52,0,0,1-9.33,9.68c-3.8,2.65-9.1,4-15.79,4a40.19,40.19,0,0,1-16-3.23,38,38,0,0,1-12.68-9,41.82,41.82,0,0,1-8.3-13.48,48.32,48.32,0,0,1,0-33.19A41.51,41.51,0,0,1,428,122.28a38.38,38.38,0,0,1,28.69-12.44,29.64,29.64,0,0,1,9,1.15,24.26,24.26,0,0,1,6.8,3.11,32.47,32.47,0,0,1,5.3,4.38,34.79,34.79,0,0,1,4,5.19l.69-8.3a5.06,5.06,0,0,1,1-3.11,3.59,3.59,0,0,1,3-1h4.84a5.06,5.06,0,0,1,3.11,1,4.45,4.45,0,0,1,1.27,3.11v74a3.28,3.28,0,0,1-1.27,2.65,5.06,5.06,0,0,1-3.11,1H486C483.27,192.92,481.89,191.54,481.89,188.77ZM349.37,114.1l22.82,58.77L395,114a4.61,4.61,0,0,1,4.49-2.88h7c2.3,0,3.46.92,3.46,2.65a5.78,5.78,0,0,1-.23,1.38,2.85,2.85,0,0,1-.46,1L379,189.69a4.78,4.78,0,0,1-2,2.54,5.09,5.09,0,0,1-2.54.58h-4.84a4.64,4.64,0,0,1-3-.69,8.94,8.94,0,0,1-1.38-2.54L335.2,117.1a11.48,11.48,0,0,1-.46-1.27,7.43,7.43,0,0,1-.35-2.3c0-1.73,1.15-2.65,3.46-2.65H345A5.4,5.4,0,0,1,349.37,114.1Zm-97.25,38.26A32.13,32.13,0,0,0,254,163.3a27.78,27.78,0,0,0,5.3,9.1,22.87,22.87,0,0,0,8.3,6.11,26.34,26.34,0,0,0,10.72,2.3,24,24,0,0,0,10.6-2.19,23.44,23.44,0,0,0,8-5.88,26.4,26.4,0,0,0,5-9,38.47,38.47,0,0,0,0-22.24,28.29,28.29,0,0,0-4.84-9.22,24,24,0,0,0-7.84-6.22,23.52,23.52,0,0,0-10.83-2.3,25.09,25.09,0,0,0-10.83,2.3,23.8,23.8,0,0,0-8.18,6.22,27.48,27.48,0,0,0-5.19,9.1A29.25,29.25,0,0,0,252.12,152.36Zm51.16,36.41v-7.84a35.52,35.52,0,0,1-9.33,9.68c-3.8,2.65-9,4-15.79,4a40.19,40.19,0,0,1-16-3.23,38,38,0,0,1-12.68-9,41.82,41.82,0,0,1-8.3-13.48,48.32,48.32,0,0,1,0-33.19,41.51,41.51,0,0,1,8.18-13.48,38.44,38.44,0,0,1,28.81-12.44,29.64,29.64,0,0,1,9,1.15,24.26,24.26,0,0,1,6.8,3.11,32.47,32.47,0,0,1,5.3,4.38,34.79,34.79,0,0,1,4,5.19l.69-8.3a5.06,5.06,0,0,1,1-3.11,3.59,3.59,0,0,1,3-1h4.84a5.06,5.06,0,0,1,3.11,1,3.65,3.65,0,0,1,1.27,3.11v74A3.28,3.28,0,0,1,316,192a5.06,5.06,0,0,1-3.11,1h-5.42C304.66,192.92,303.28,191.54,303.28,188.77Z" fill="#184070"/></svg>