<svg xmlns="http://www.w3.org/2000/svg" width="1279" height="315" viewBox="0 0 1279 315">
  <path fill="#FEFACC" d="M179.261394 76.8866994L104.9 241.9C103.8 243.9 104.6 246.4 106.6 247.4 107.3 247.8 108.1 247.9 108.9 247.9L118.1 247.9C119.8 247.9 121.4 246.9 122.1 245.3L158.219747 163.944335 194.5 245.4C195.2 247 196.7 248 198.4 248L207.7 248C210 248.2 211.9 246.5 212.1 244.2 212.2 243.4 212 242.7 211.6 242L167.320564 143.44577 187.510763 97.9696185 253.1 245.3C253.7 246.9 255.3 247.9 257 247.9L266.3 247.9C267.1 247.9 267.8 247.8 268.5 247.4 270.5 246.4 271.3 243.9 270.2 241.9L195.734579 76.6558579C195.650739 76.3647592 195.539212 76.0784245 195.4 75.8L192.6 69.7C192.580845 69.6562177 192.561017 69.6128098 192.54053 69.5697906 192.244415 68.9454748 191.823831 68.4182115 191.316812 68.0132349 190.551553 67.3924887 189.59283 67.0415982 188.6 67.1L186.4 67.1 186.3 67.1C184.6 67.1 183.1 68.1 182.4 69.7L179.6 75.8C179.449261 76.151724 179.336393 76.5160713 179.261394 76.8866994zM26.4 0L289.7 0C304 0 315.5 11.6 315.5 25.8L315.5 289.1C315.5 303.4 303.9 314.9 289.7 314.9L26.4 314.9C12.1 314.9.6 303.3.6 289.1L.6 25.8C.6 11.6 12.1 0 26.4 0zM136.4 75.8L133.6 69.7C132.9 68.1 131.3 67.1 129.6 67.1L127.3 67.1C125.6 67.1 124 68.1 123.4 69.7L45.9 241.8C44.8 243.8 45.6 246.3 47.6 247.3 48.3 247.7 49.1 247.8 49.9 247.8L59.2 247.8C60.9 247.8 62.4 246.8 63.1 245.3L136.5 80.2C137.2 78.8 137.2 77.2 136.4 75.8zM1157.76783 65.1050708C1157.49615 62.1165578 1159.94129 59.3997278 1162.92981 59.3997278 1163.20149 59.3997278 1163.47317 59.3997278 1163.74486 59.3997278L1190.36979 59.3997278C1193.3583 59.1280448 1195.80345 61.0298258 1196.07513 64.0183388 1196.07513 64.2900218 1196.07513 64.8333878 1196.07513 65.1050708L1196.07513 218.334282 1272.68974 218.334282C1274.31984 218.334282 1275.67825 218.877648 1276.76498 219.96438 1277.85171 221.051112 1278.66676 222.68121 1278.39508 224.311308L1278.39508 248.219412C1278.66676 251.207925 1276.76498 253.653072 1273.77647 253.924755 1273.50479 253.924755 1272.96142 253.924755 1272.68974 253.924755L1163.47317 253.924755C1160.75634 254.196438 1158.03951 252.294657 1157.76783 249.577827 1157.76783 249.034461 1157.76783 248.491095 1157.76783 248.219412L1157.76783 65.1050708zM1049.90968 248.762778L1049.90968 65.1050708C1049.90968 61.3015088 1051.53978 59.6714108 1055.07166 59.6714108L1083.32669 59.6714108C1086.58688 59.6714108 1088.21698 61.5731918 1088.21698 65.1050708L1088.21698 248.762778C1088.21698 252.294657 1086.58688 253.924755 1083.32669 253.924755L1055.07166 253.924755C1052.62651 254.196438 1050.18136 252.56634 1049.90968 250.121193 1049.90968 249.577827 1049.90968 249.306144 1049.90968 248.762778zM829.84645 158.020656C829.84645 166.714512 831.204865 175.680051 834.193378 183.830541 836.910208 191.709348 841.257136 199.044789 846.690796 205.293498 852.124456 211.542207 858.644848 216.432501 866.251972 219.96438 874.130779 223.496259 882.824634 225.39804 891.246807 225.39804 899.940663 225.669723 908.362836 223.767942 916.513326 220.236063 923.577084 216.975867 930.097476 212.085573 935.259453 206.38023 940.42143 200.131521 944.496675 193.067763 946.941822 185.460639 952.103799 168.34461 952.103799 150.141849 946.941822 133.025821 944.496675 125.147014 940.693113 117.811573 935.531136 111.291181 930.640842 105.042472 924.12045 100.152178 917.056692 96.6202986 909.177885 92.8167367 900.212346 90.9149557 891.51849 91.1866387 882.824634 91.1866387 874.130779 92.8167367 865.980289 96.6202986 858.644848 99.8804946 852.124456 105.042472 846.690796 111.291181 841.257136 117.53989 837.181891 124.875331 834.465061 132.754138 831.204865 140.632944 829.84645 149.3268 829.84645 158.020656zM950.473701 244.144167L950.473701 225.669723C944.768358 234.635262 937.161234 242.242386 928.467378 248.491095 919.501839 254.739804 907.004421 258 891.246807 258 878.206023 258 865.436923 255.554853 853.482871 250.392876 842.072185 245.502582 832.019914 238.167141 823.597741 229.201602 815.175568 219.96438 808.383493 209.09706 804.036565 197.414691 794.799343 172.148172 794.799343 144.436506 804.036565 119.169988 808.383493 107.487619 814.903885 96.6202986 823.326058 87.3830767 840.71377 68.3652668 865.436923 57.7696298 890.975124 58.0413128 898.038882 57.7696298 905.374323 58.8563618 912.166398 60.7581428 917.871741 62.3882408 923.305401 64.8333878 928.195695 68.0935838 932.814306 71.0820967 936.889551 74.6139757 940.693113 78.4175377 944.224992 82.2210997 947.485188 86.2963447 950.202018 90.6432727L951.832116 71.0820967C951.832116 68.3652668 952.647165 65.9201198 954.277263 63.7466558 956.179044 61.8448748 958.624191 61.0298258 961.341021 61.3015088L972.751707 61.3015088C975.468537 61.3015088 977.913684 62.1165578 980.087148 63.7466558 981.988929 65.6484368 983.075661 68.3652668 983.075661 71.0820967L983.075661 245.502582C983.075661 247.947729 981.988929 250.392876 980.087148 251.751291 977.913684 253.381389 975.468537 254.196438 972.751707 254.196438L960.254289 254.196438C953.733897 253.924755 950.473701 250.664559 950.473701 244.144167zM638.038252 68.0935838L691.831486 206.651913 745.62472 67.8219008C747.526501 63.4749728 751.601746 60.7581428 756.220357 61.0298258L772.79302 61.0298258C778.22668 61.0298258 780.94351 63.2032898 780.94351 67.2785348 780.94351 68.3652668 780.671827 69.4519988 780.400144 70.5387308 780.128461 71.3537797 779.856778 72.4405117 779.313412 72.9838777L707.860783 246.317631C707.045734 248.762778 705.415636 250.936242 703.242172 252.294657 701.340391 253.381389 699.166927 253.653072 697.265146 253.653072L685.85446 253.653072C683.409313 253.924755 680.964166 253.381389 678.790702 252.022974 677.432287 250.392876 676.345555 248.219412 675.530506 246.045948L604.621244 75.1573417C604.349561 74.6139757 604.077878 73.7989267 603.534512 72.1688287 602.991146 70.5387308 602.719463 68.6369498 602.719463 66.7351688 602.719463 62.6599238 605.436293 60.4864598 610.869953 60.4864598L627.714298 60.4864598C632.332909 61.0298258 636.408154 64.0183388 638.038252 68.0935838zM408.737801 158.292339C408.737801 166.986195 410.096216 175.951734 413.084729 184.102224 415.801559 191.981031 420.148487 199.316472 425.582147 205.565181 431.015807 211.81389 437.536199 216.704184 445.143323 219.96438 453.02213 223.496259 461.715986 225.39804 470.409842 225.39804 479.103698 225.669723 487.525871 223.767942 495.404678 220.236063 502.468436 216.975867 508.988828 212.357256 514.150805 206.38023 519.312782 200.131521 523.388027 193.067763 525.833174 185.188956 530.995151 168.072927 530.995151 149.870166 525.833174 132.754138 523.388027 124.875331 519.584465 117.53989 514.422488 111.019498 509.260511 104.770789 503.011802 99.8804946 495.948044 96.3486156 488.069237 92.5450537 479.103698 90.6432727 470.409842 90.9149557 461.715986 90.9149557 452.750447 92.5450537 444.87164 96.3486156 437.536199 99.6088116 431.015807 104.770789 425.582147 111.019498 420.148487 117.268207 416.073242 124.603648 413.356412 132.482455 410.096216 140.632944 408.737801 149.3268 408.737801 158.292339zM529.365053 244.144167L529.365053 225.669723C523.65971 234.635262 516.052586 242.242386 507.35873 248.491095 498.393191 254.739804 486.167456 258 470.138159 258 457.097375 258 444.328274 255.554853 432.374222 250.392876 420.963536 245.502582 410.911265 238.167141 402.489092 229.201602 394.066919 219.96438 387.274844 209.09706 382.927916 197.414691 373.690695 172.148172 373.690695 144.436506 382.927916 119.169988 387.274844 107.487619 393.795236 96.6202986 402.217409 87.3830767 419.605121 68.3652668 444.328274 57.7696298 470.138159 58.0413128 477.201917 57.7696298 484.537358 58.8563618 491.329433 60.7581428 497.034776 62.3882408 502.468436 64.8333878 507.35873 68.0935838 511.977341 71.0820967 516.052586 74.6139757 519.856148 78.4175377 523.388027 82.2210997 526.648223 86.2963447 529.365053 90.6432727L530.995151 71.0820967C530.995151 68.3652668 531.8102 65.9201198 533.440298 63.7466558 535.342079 61.8448748 537.787226 61.0298258 540.504056 61.3015088L551.914742 61.3015088C554.631572 61.3015088 557.076719 62.1165578 559.250183 63.7466558 561.423647 65.6484368 562.510379 68.3652668 562.238696 71.0820967L562.238696 245.502582C562.238696 247.947729 561.151964 250.392876 559.250183 251.751291 557.076719 253.381389 554.631572 254.196438 551.914742 254.196438L539.145641 254.196438C532.625249 253.924755 529.365053 250.664559 529.365053 244.144167z"/>
</svg>
