<svg width="446" height="123" viewBox="0 0 446 123" fill="none" xmlns="http://www.w3.org/2000/svg">
<path d="M31.802 43.7159C29.032 43.7159 27.532 42.5139 26.722 40.3199C25.916 38.2429 26.147 37.2699 24.068 37.2699C21.991 37.2699 17.143 42.9859 16.45 50.8319C16.335 51.7569 16.22 56.9499 16.22 59.8369V66.9169C16.22 70.0329 15.99 73.9589 16.566 76.2669C17.143 79.3839 17.951 79.7289 20.376 80.7669C21.183 81.1169 21.53 81.2299 22.106 81.3439V81.5759H0.521973V81.3439C1.11572 81.2077 1.69503 81.0148 2.25197 80.7679C4.67797 79.7279 5.36997 79.3839 5.94697 76.2679C6.52397 73.9579 6.29397 70.0329 6.29397 66.9179V46.8299C6.29397 44.8699 6.40897 39.3279 6.17797 37.5979C5.83197 35.4049 5.25497 34.7119 4.21497 33.9039C3.06197 32.9809 1.90797 32.9809 1.21497 32.8639V32.6339H15.643C16.335 32.6339 16.335 32.8639 16.335 33.3259L16.22 46.4859H16.335C17.72 40.7139 20.721 37.0209 22.335 35.4059C23.953 33.6739 26.955 31.5959 30.648 31.5959C32.378 31.5959 34.342 32.0579 35.611 33.4429C36.536 34.3629 37.228 35.8649 37.228 38.2929C37.228 41.0589 35.498 43.7129 31.803 43.7129" fill="white"/>
<path d="M248.39 43.7159C245.62 43.7159 244.12 42.5139 243.31 40.3199C242.503 38.2429 242.734 37.2699 240.658 37.2699C238.578 37.2699 233.732 42.9859 233.038 50.8319C232.923 51.7569 232.806 56.9499 232.806 59.8369V66.9169C232.806 70.0329 232.576 73.9589 233.156 76.2669C233.732 79.3839 234.539 79.7289 236.963 80.7669C237.771 81.1169 238.117 81.2299 238.695 81.3439V81.5759H217.11V81.3439C217.572 81.2299 218.035 81.1159 218.84 80.7679C221.265 79.7279 221.958 79.3839 222.535 76.2679C223.112 73.9579 222.88 70.0329 222.88 66.9179V46.8299C222.88 44.8699 222.998 39.3279 222.765 37.5979C222.42 35.4049 221.843 34.7119 220.803 33.9039C219.649 32.9809 218.496 32.9809 217.803 32.8639V32.6339H232.231C232.924 32.6339 232.924 32.8639 232.924 33.3259L232.807 46.4859H232.924C234.308 40.7139 237.309 37.0209 238.926 35.4059C240.542 33.6739 243.543 31.5959 247.236 31.5959C248.966 31.5959 250.93 32.0579 252.2 33.4429C253.122 34.3629 253.813 35.8649 253.813 38.2929C253.813 41.0589 252.083 43.7129 248.39 43.7129" fill="white"/>
<path d="M63.083 35.955C61.235 34.433 59.389 33.861 56.618 33.861C54.195 33.861 52.348 34.434 50.618 36.051C48.078 38.331 46.691 43.566 46.346 51.083H62.966C66.316 51.083 66.66 50.986 66.66 46.801C66.66 40.996 64.93 37.477 63.083 35.956V35.955ZM76.818 53.413H46.346C46.346 66.917 48.078 71.038 51.426 74.847C54.079 77.847 56.504 78.655 59.851 78.655C69.086 78.655 74.164 73.959 75.895 65.878L76.357 65.994C74.279 76.036 67.932 82.614 58.005 82.614C52.232 82.614 46.002 81.23 41.73 76.728C37.112 71.765 35.38 65.763 35.38 57.451C35.38 41.987 44.27 31.598 56.504 31.598C70.701 31.598 76.934 41.178 76.934 50.183C76.934 50.99 76.934 52.145 76.818 53.413V53.413ZM96.398 58.797C93.168 60.531 91.78 61.682 90.743 63.297C89.588 65.144 88.896 67.223 88.896 70.455C88.896 77.035 91.436 78.423 96.052 78.423C96.975 78.423 98.014 78.307 98.937 77.843C101.361 76.575 104.869 72.883 104.869 69.19L104.983 53.027C103.368 55.564 99.513 57.181 96.397 58.797H96.398ZM113.525 82.613C110.755 82.613 108.563 82.499 107.177 81.693C105.677 80.883 104.637 78.573 104.869 74.305H104.751C103.598 78.229 98.358 82.613 90.973 82.613C84.163 82.613 78.16 78.693 78.16 70.38C78.16 67.263 79.083 64.838 81.047 62.994C84.625 59.647 89.472 59.414 94.435 57.451C101.015 54.911 105.215 51.799 105.215 48.337C105.215 46.604 105.362 42.671 105.362 40.939C105.362 34.706 102.546 33.669 97.582 33.669C95.159 33.669 93.659 34.129 92.505 35.284C91.351 36.439 90.858 37.484 90.858 40.948C90.858 44.526 88.896 46.028 85.664 46.028C83.124 46.028 81.047 44.641 81.047 41.64C81.047 39.678 81.739 38.294 82.893 36.907C85.433 33.677 92.473 31.712 97.437 31.712C105.977 31.712 115.487 34.83 115.487 43.026C115.487 46.832 115.257 64.926 115.257 71.853C115.257 73.381 115.244 74.913 115.355 76.441C115.492 78.321 116.045 80.476 118.157 80.946C119.132 81.162 120.407 80.976 121.222 80.37V80.53C120.067 81.567 117.218 82.613 113.525 82.613V82.613ZM121.372 81.576V81.344C122.04 81.2064 122.696 81.0138 123.332 80.768C125.297 79.958 126.22 79.268 126.796 76.268C127.259 74.073 127.259 70.268 127.259 67.033V16.823C127.259 14.861 127.374 9.32095 127.027 7.58895C126.68 5.39595 126.103 4.58895 125.065 3.89895C123.795 2.97195 122.871 2.97195 122.065 2.85895V2.62695H136.607C137.299 2.62695 137.299 2.62695 137.299 3.43295C137.299 5.16495 137.185 7.58795 137.185 10.706V67.032C137.185 70.266 137.069 73.958 137.53 76.266C138.223 79.383 139.03 79.958 141.456 80.882C142.148 81.115 142.379 81.229 142.956 81.342V81.575H121.372" fill="white"/>
<path d="M174.58 75.227C172.85 79.035 167.77 82.613 162.807 82.613C158.307 82.613 155.307 81.923 152.767 79.613C150.687 77.766 149.765 75.459 149.765 71.189C149.765 68.879 150.111 38.984 150.227 33.327C148.495 33.213 145.147 33.213 143.417 32.982V32.752C150.573 31.134 155.074 27.444 159.921 11.859H160.271V30.971H171.697V33.213H160.27L159.805 72C159.805 76.385 161.075 80.153 165.691 80.153C169.731 80.153 172.849 77.766 174.233 74.998L174.58 75.228" fill="white"/>
<path d="M201.703 37.208C199.393 34.438 196.74 33.861 194.083 33.861C191.547 33.861 188.776 34.787 186.583 37.094C183.12 40.672 181.158 48.22 181.158 56.992C181.158 65.996 183.235 73.038 186.468 76.848C188.776 79.618 191.548 80.31 194.084 80.31C196.74 80.31 199.279 79.735 201.704 76.964C204.819 73.154 207.012 65.996 207.012 56.994C207.012 48.104 204.936 41.018 201.702 37.21L201.703 37.208ZM194.083 82.613C182.659 82.613 170.423 72.805 170.423 56.991C170.423 41.178 182.659 31.598 194.083 31.598C205.513 31.598 217.863 41.295 217.863 56.992C217.863 72.692 205.513 82.615 194.083 82.615V82.613ZM335.707 37.208C333.399 34.438 330.744 33.861 328.087 33.861C325.549 33.861 322.78 34.787 320.587 37.094C317.124 40.672 315.161 48.22 315.161 56.992C315.161 65.996 317.241 73.038 320.471 76.848C322.781 79.618 325.551 80.31 328.089 80.31C330.745 80.31 333.285 79.735 335.709 76.964C338.826 73.154 341.019 65.996 341.019 56.994C341.019 48.104 338.939 41.018 335.709 37.21L335.707 37.208ZM328.087 82.613C316.661 82.613 304.427 72.805 304.427 56.991C304.427 41.178 316.661 31.598 328.087 31.598C339.515 31.598 351.867 41.295 351.867 56.992C351.867 72.692 339.515 82.615 328.087 82.615V82.613ZM254.22 83.307C250.87 83.307 248.1 80.652 248.1 76.96C248.1 73.266 250.87 70.61 254.22 70.61C257.566 70.61 260.337 72.92 260.337 76.96C260.337 81 257.567 83.307 254.22 83.307V83.307ZM286.305 82.613C279.957 82.613 274.301 80.193 270.609 76.497C265.877 71.651 264.029 64.837 264.029 56.531C264.029 40.831 276.033 31.598 286.421 31.598C293.575 31.598 298.886 34.254 300.963 36.793C302.58 38.756 303.39 40.487 303.39 42.101C303.39 45.681 300.734 47.066 298.656 47.066C294.733 47.066 293.346 44.641 292.886 40.948C291.961 34.368 290.923 33.521 285.959 33.521C283.997 33.521 280.879 34.329 279.034 36.408C276.378 39.408 274.994 45.564 274.994 54.568C274.994 65.878 276.378 70.348 279.381 74.732C281.573 77.965 284.343 78.775 286.998 78.775C297.386 78.775 302.002 72.691 303.618 65.88L304.078 65.996C302.002 75.116 296.001 82.616 286.303 82.616" fill="white"/>
<path d="M410.97 81.603V81.37C411.548 81.255 411.893 81.14 412.703 80.795C415.01 79.871 415.82 79.295 416.396 76.177C416.973 73.867 416.856 70.174 416.856 66.943V46.857C416.856 41.547 416.396 39.049 415.126 37.319C413.626 35.354 411.779 34.316 408.778 34.316C403.583 34.316 397.811 43.174 397.003 52.061C396.886 53.791 396.773 55.211 396.773 57.401V66.941C396.773 70.173 396.543 73.867 397.119 76.176C397.695 79.294 398.619 79.87 400.927 80.794C401.735 81.14 402.08 81.254 402.659 81.369V81.602H381.073V81.369C381.649 81.254 381.997 81.139 382.805 80.794C385.112 79.87 385.92 79.294 386.499 76.176C387.077 73.866 386.959 70.173 386.959 66.942V46.857C386.959 41.547 386.383 39.049 385.112 37.319C383.612 35.354 381.765 34.316 378.764 34.316C372.994 34.316 367.796 43.403 366.989 52.293C366.757 55.063 366.757 54.013 366.757 57.476V66.942C366.757 70.172 366.529 73.984 367.105 76.292C367.682 79.409 368.605 79.752 371.029 80.794L372.645 81.369V81.602H351.062V81.369C351.522 81.254 351.982 81.139 352.792 80.794C355.215 79.87 355.792 79.409 356.485 76.291C357.061 73.984 356.947 70.173 356.947 66.941V46.971C356.947 44.895 356.947 39.351 356.717 37.621C356.37 35.428 355.907 34.851 354.753 33.925C353.599 33.005 352.56 33.005 351.753 32.89V32.66H366.293C366.989 32.66 366.989 32.774 366.989 33.35L366.757 44.663H366.874C368.26 39.585 370.799 36.698 373.338 34.853C375.184 33.466 378.878 31.617 382.918 31.617C387.998 31.617 391.578 33.119 393.655 35.659C394.808 37.045 396.655 40.276 396.655 45.009H396.77C398.27 39.584 401.04 36.582 403.464 34.851C406.002 33.004 409.929 31.616 412.93 31.616C419.28 31.616 422.166 33.58 423.897 35.776C425.397 37.506 426.664 40.622 426.664 46.511V66.941C426.664 70.173 426.55 73.867 427.126 76.176C427.704 79.294 428.511 79.753 430.936 80.794L432.554 81.369V81.602H410.964L410.97 81.603ZM438.534 33.093C438.968 33.093 439.312 32.993 439.559 32.793C439.68 32.6983 439.776 32.5766 439.841 32.4376C439.906 32.2986 439.937 32.1463 439.932 31.993V31.953C439.932 31.593 439.807 31.32 439.558 31.133C439.31 30.946 438.966 30.853 438.532 30.853H436.776V33.093H438.532H438.534ZM435.434 29.643H438.589C439.507 29.643 440.223 29.895 440.734 30.407C441.121 30.767 441.312 31.259 441.312 31.882V31.916C441.312 32.49 441.162 32.951 440.855 33.309C440.542 33.6658 440.13 33.9213 439.671 34.043L441.574 36.713H439.97L438.253 34.268H436.778V36.711H435.435V29.641L435.434 29.643ZM438.142 39.15C438.925 39.1561 439.701 38.9984 440.42 38.687C441.797 38.1006 442.888 36.9971 443.459 35.614C443.751 34.911 443.899 34.164 443.899 33.372V33.338C443.904 32.5726 443.756 31.8138 443.465 31.106C443.186 30.4251 442.777 29.8052 442.261 29.281C441.74 28.7582 441.123 28.3407 440.444 28.051C439.748 27.748 438.992 27.598 438.177 27.598C437.362 27.598 436.603 27.751 435.901 28.058C435.201 28.368 434.591 28.778 434.076 29.301C433.556 29.8274 433.144 30.4495 432.861 31.133C432.567 31.833 432.418 32.583 432.418 33.373V33.409C432.408 34.9246 432.998 36.3826 434.059 37.465C434.592 38.0046 435.228 38.4319 435.929 38.7215C436.63 39.011 437.382 39.1571 438.141 39.151L438.142 39.15ZM438.142 39.98C437.215 39.98 436.352 39.807 435.55 39.46C434.769 39.1263 434.06 38.6464 433.46 38.046C432.867 37.4435 432.393 36.7344 432.064 35.956C431.722 35.1504 431.547 34.2833 431.552 33.408V33.372C431.552 32.472 431.722 31.624 432.064 30.827C432.404 30.027 432.874 29.329 433.471 28.727C434.076 28.1204 434.79 27.6344 435.577 27.295C436.398 26.9407 437.284 26.7609 438.179 26.767C439.105 26.767 439.965 26.94 440.771 27.285C441.574 27.633 442.271 28.105 442.861 28.7C443.455 29.3015 443.928 30.0109 444.255 30.79C444.599 31.586 444.769 32.436 444.769 33.338V33.372C444.769 34.274 444.599 35.122 444.255 35.92C443.925 36.7021 443.449 37.4141 442.852 38.018C442.248 38.6257 441.533 39.1118 440.746 39.45C439.936 39.804 439.069 39.98 438.144 39.98H438.142Z" fill="white"/>
<path d="M5.03906 17.9883V24H1.52344V6.9375H8.17969C9.46094 6.9375 10.5859 7.17188 11.5547 7.64062C12.5312 8.10938 13.2812 8.77734 13.8047 9.64453C14.3281 10.5039 14.5898 11.4844 14.5898 12.5859C14.5898 14.2578 14.0156 15.5781 12.8672 16.5469C11.7266 17.5078 10.1445 17.9883 8.12109 17.9883H5.03906ZM5.03906 15.1406H8.17969C9.10938 15.1406 9.81641 14.9219 10.3008 14.4844C10.793 14.0469 11.0391 13.4219 11.0391 12.6094C11.0391 11.7734 10.793 11.0977 10.3008 10.582C9.80859 10.0664 9.12891 9.80078 8.26172 9.78516H5.03906V15.1406ZM24 24C23.8438 23.6953 23.7305 23.3164 23.6602 22.8633C22.8398 23.7773 21.7734 24.2344 20.4609 24.2344C19.2188 24.2344 18.1875 23.875 17.3672 23.1562C16.5547 22.4375 16.1484 21.5312 16.1484 20.4375C16.1484 19.0938 16.6445 18.0625 17.6367 17.3438C18.6367 16.625 20.0781 16.2617 21.9609 16.2539H23.5195V15.5273C23.5195 14.9414 23.3672 14.4727 23.0625 14.1211C22.7656 13.7695 22.293 13.5938 21.6445 13.5938C21.0742 13.5938 20.625 13.7305 20.2969 14.0039C19.9766 14.2773 19.8164 14.6523 19.8164 15.1289H16.4297C16.4297 14.3945 16.6562 13.7148 17.1094 13.0898C17.5625 12.4648 18.2031 11.9766 19.0312 11.625C19.8594 11.2656 20.7891 11.0859 21.8203 11.0859C23.3828 11.0859 24.6211 11.4805 25.5352 12.2695C26.457 13.0508 26.918 14.1523 26.918 15.5742V21.0703C26.9258 22.2734 27.0938 23.1836 27.4219 23.8008V24H24ZM21.1992 21.6445C21.6992 21.6445 22.1602 21.5352 22.582 21.3164C23.0039 21.0898 23.3164 20.7891 23.5195 20.4141V18.2344H22.2539C20.5586 18.2344 19.6562 18.8203 19.5469 19.9922L19.5352 20.1914C19.5352 20.6133 19.6836 20.9609 19.9805 21.2344C20.2773 21.5078 20.6836 21.6445 21.1992 21.6445ZM36.6445 14.4961C36.1836 14.4336 35.7773 14.4023 35.4258 14.4023C34.1445 14.4023 33.3047 14.8359 32.9062 15.7031V24H29.5195V11.3203H32.7188L32.8125 12.832C33.4922 11.668 34.4336 11.0859 35.6367 11.0859C36.0117 11.0859 36.3633 11.1367 36.6914 11.2383L36.6445 14.4961ZM42.9258 8.20312V11.3203H45.0938V13.8047H42.9258V20.1328C42.9258 20.6016 43.0156 20.9375 43.1953 21.1406C43.375 21.3438 43.7188 21.4453 44.2266 21.4453C44.6016 21.4453 44.9336 21.418 45.2227 21.3633V23.9297C44.5586 24.1328 43.875 24.2344 43.1719 24.2344C40.7969 24.2344 39.5859 23.0352 39.5391 20.6367V13.8047H37.6875V11.3203H39.5391V8.20312H42.9258ZM52.4297 17.543C52.4297 16.2852 52.6719 15.1641 53.1562 14.1797C53.6406 13.1953 54.3359 12.4336 55.2422 11.8945C56.1562 11.3555 57.2148 11.0859 58.418 11.0859C60.1289 11.0859 61.5234 11.6094 62.6016 12.6562C63.6875 13.7031 64.293 15.125 64.418 16.9219L64.4414 17.7891C64.4414 19.7344 63.8984 21.2969 62.8125 22.4766C61.7266 23.6484 60.2695 24.2344 58.4414 24.2344C56.6133 24.2344 55.1523 23.6484 54.0586 22.4766C52.9727 21.3047 52.4297 19.7109 52.4297 17.6953V17.543ZM55.8164 17.7891C55.8164 18.9922 56.043 19.9141 56.4961 20.5547C56.9492 21.1875 57.5977 21.5039 58.4414 21.5039C59.2617 21.5039 59.9023 21.1914 60.3633 20.5664C60.8242 19.9336 61.0547 18.9258 61.0547 17.543C61.0547 16.3633 60.8242 15.4492 60.3633 14.8008C59.9023 14.1523 59.2539 13.8281 58.418 13.8281C57.5898 13.8281 56.9492 14.1523 56.4961 14.8008C56.043 15.4414 55.8164 16.4375 55.8164 17.7891ZM67.4531 24V13.8047H65.5664V11.3203H67.4531V10.2422C67.4531 8.82031 67.8594 7.71875 68.6719 6.9375C69.4922 6.14844 70.6367 5.75391 72.1055 5.75391C72.5742 5.75391 73.1484 5.83203 73.8281 5.98828L73.793 8.61328C73.5117 8.54297 73.168 8.50781 72.7617 8.50781C71.4883 8.50781 70.8516 9.10547 70.8516 10.3008V11.3203H73.3711V13.8047H70.8516V24H67.4531ZM85.1602 8.20312V11.3203H87.3281V13.8047H85.1602V20.1328C85.1602 20.6016 85.25 20.9375 85.4297 21.1406C85.6094 21.3438 85.9531 21.4453 86.4609 21.4453C86.8359 21.4453 87.168 21.418 87.457 21.3633V23.9297C86.793 24.1328 86.1094 24.2344 85.4062 24.2344C83.0312 24.2344 81.8203 23.0352 81.7734 20.6367V13.8047H79.9219V11.3203H81.7734V8.20312H85.1602ZM92.5195 12.7031C93.418 11.625 94.5469 11.0859 95.9062 11.0859C98.6562 11.0859 100.051 12.6836 100.09 15.8789V24H96.7031V15.9727C96.7031 15.2461 96.5469 14.7109 96.2344 14.3672C95.9219 14.0156 95.4023 13.8398 94.6758 13.8398C93.6836 13.8398 92.9648 14.2227 92.5195 14.9883V24H89.1328V6H92.5195V12.7031ZM108.48 24.2344C106.621 24.2344 105.105 23.6641 103.934 22.5234C102.77 21.3828 102.188 19.8633 102.188 17.9648V17.6367C102.188 16.3633 102.434 15.2266 102.926 14.2266C103.418 13.2188 104.113 12.4453 105.012 11.9062C105.918 11.3594 106.949 11.0859 108.105 11.0859C109.84 11.0859 111.203 11.6328 112.195 12.7266C113.195 13.8203 113.695 15.3711 113.695 17.3789V18.7617H105.621C105.73 19.5898 106.059 20.2539 106.605 20.7539C107.16 21.2539 107.859 21.5039 108.703 21.5039C110.008 21.5039 111.027 21.0312 111.762 20.0859L113.426 21.9492C112.918 22.668 112.23 23.2305 111.363 23.6367C110.496 24.0352 109.535 24.2344 108.48 24.2344ZM108.094 13.8281C107.422 13.8281 106.875 14.0547 106.453 14.5078C106.039 14.9609 105.773 15.6094 105.656 16.4531H110.367V16.1836C110.352 15.4336 110.148 14.8555 109.758 14.4492C109.367 14.0352 108.812 13.8281 108.094 13.8281Z" fill="white"/>
<path d="M344.406 114H339.719L330.594 99.0312V114H325.906V91.25H330.594L339.734 106.25V91.25H344.406V114ZM355.984 114.312C353.505 114.312 351.484 113.552 349.922 112.031C348.37 110.51 347.594 108.484 347.594 105.953V105.516C347.594 103.818 347.922 102.302 348.578 100.969C349.234 99.625 350.161 98.5938 351.359 97.875C352.568 97.1458 353.943 96.7812 355.484 96.7812C357.797 96.7812 359.615 97.5104 360.938 98.9688C362.271 100.427 362.938 102.495 362.938 105.172V107.016H352.172C352.318 108.12 352.755 109.005 353.484 109.672C354.224 110.339 355.156 110.672 356.281 110.672C358.021 110.672 359.38 110.042 360.359 108.781L362.578 111.266C361.901 112.224 360.984 112.974 359.828 113.516C358.672 114.047 357.391 114.312 355.984 114.312ZM355.469 100.438C354.573 100.438 353.844 100.74 353.281 101.344C352.729 101.948 352.375 102.812 352.219 103.938H358.5V103.578C358.479 102.578 358.208 101.807 357.688 101.266C357.167 100.714 356.427 100.438 355.469 100.438ZM370.922 92.9375V97.0938H373.812V100.406H370.922V108.844C370.922 109.469 371.042 109.917 371.281 110.188C371.521 110.458 371.979 110.594 372.656 110.594C373.156 110.594 373.599 110.557 373.984 110.484V113.906C373.099 114.177 372.188 114.312 371.25 114.312C368.083 114.312 366.469 112.714 366.406 109.516V100.406H363.938V97.0938H366.406V92.9375H370.922ZM391.031 107.859L393.25 97.0938H397.609L393.297 114H389.516L386.312 103.359L383.109 114H379.344L375.031 97.0938H379.391L381.594 107.844L384.688 97.0938H387.953L391.031 107.859ZM399.156 105.391C399.156 103.714 399.479 102.219 400.125 100.906C400.771 99.5938 401.698 98.5781 402.906 97.8594C404.125 97.1406 405.536 96.7812 407.141 96.7812C409.422 96.7812 411.281 97.4792 412.719 98.875C414.167 100.271 414.974 102.167 415.141 104.562L415.172 105.719C415.172 108.312 414.448 110.396 413 111.969C411.552 113.531 409.609 114.312 407.172 114.312C404.734 114.312 402.786 113.531 401.328 111.969C399.88 110.406 399.156 108.281 399.156 105.594V105.391ZM403.672 105.719C403.672 107.323 403.974 108.552 404.578 109.406C405.182 110.25 406.047 110.672 407.172 110.672C408.266 110.672 409.12 110.255 409.734 109.422C410.349 108.578 410.656 107.234 410.656 105.391C410.656 103.818 410.349 102.599 409.734 101.734C409.12 100.87 408.255 100.438 407.141 100.438C406.036 100.438 405.182 100.87 404.578 101.734C403.974 102.589 403.672 103.917 403.672 105.719ZM427.453 101.328C426.839 101.245 426.297 101.203 425.828 101.203C424.12 101.203 423 101.781 422.469 102.938V114H417.953V97.0938H422.219L422.344 99.1094C423.25 97.5573 424.505 96.7812 426.109 96.7812C426.609 96.7812 427.078 96.849 427.516 96.9844L427.453 101.328ZM435.781 107.219L434.156 108.844V114H429.641V90H434.156V103.297L435.031 102.172L439.359 97.0938H444.781L438.672 104.141L445.312 114H440.125L435.781 107.219Z" fill="white"/>
</svg>
