<svg width="159" height="24" viewBox="0 0 159 24" fill="none" xmlns="http://www.w3.org/2000/svg">
<g clip-path="url(#clip0)">
<path d="M33.2699 2.23746C32.5923 2.72296 31.8672 3.48736 31.4499 4.09888C30.9747 3.50182 30.1648 2.787 29.5471 2.36348C30.1566 1.88625 31.0821 0.937997 31.4499 0.41738C31.8176 0.933865 32.7142 1.80982 33.2699 2.23746Z" fill="#0A2847"/>
<path d="M44.3 7.03045C44.2008 8.29067 43.236 9.56122 41.8932 9.56122C40.6412 9.56122 39.8685 9.053 39.445 8.16051L39.2777 8.26382V16.7404C39.9925 17.1225 41.1081 17.794 41.7258 18.2051L43.0646 16.8251L43.2732 17.0089L40.071 20.3372C38.6517 19.3104 36.6932 18.1225 35.4888 17.5543V17.4903C36.0548 17.1391 36.2635 16.5896 36.2635 15.2529V9.45587C38.4596 8.60057 40.197 7.38372 41.4325 6.29704C41.6742 6.69576 42.2299 7.19573 42.9385 7.19573C43.5273 7.19573 43.988 7.06351 44.2174 6.90237L44.3 7.03045V7.03045Z" fill="#0A2847"/>
<path d="M35.1953 17.577L32.5178 20.3578C31.8237 19.769 30.5779 18.9529 29.5264 18.3703V18.3042C29.923 18.139 30.1937 17.4903 30.1937 16.6742V9.03851L29.233 8.36915L28.4583 9.16246L28.2703 8.97653L30.8857 6.23709C31.5097 6.75151 32.7761 7.60474 33.8359 8.18114V8.22247C33.4062 8.48071 33.2079 9.31121 33.2079 10.2719V17.577L34.2119 18.2051L34.9866 17.3849L35.1953 17.577V17.577Z" fill="#0A2847"/>
<path d="M29.0451 17.6142L26.3862 20.3578C25.8429 19.9363 24.752 19.2009 24.0228 18.8104V9.60251C23.4464 9.34014 22.6593 8.76581 22.3287 8.45179L21.3866 9.43517V17.5543L22.7047 18.3042V18.3703L20.7586 20.3578C20.019 19.7297 18.7422 18.9096 17.7444 18.3931V18.3497C18.0997 18.015 18.3518 17.4262 18.3518 16.3003V2.48742C18.3518 1.44206 18.1638 1.12803 17.9551 0.77269L18.0997 0.710714C18.5604 1.10944 18.8476 1.44618 18.9592 2.15273H19.0025C19.676 1.02886 20.5127 0.291327 22.1407 0.0826672L22.182 0.167371C21.7275 0.721043 21.3866 1.32636 21.3866 2.2581V9.03851L23.9814 6.297C24.8595 7.03041 26.3449 8.18114 27.6423 8.8505V8.91043C27.287 9.29056 27.0783 10.0198 27.0783 11.28V17.6142L28.0617 18.2443L28.8571 17.4303L29.0451 17.6142V17.6142Z" fill="#0A2847"/>
<path d="M12.9739 19.5211H12.7446V3.97493H12.9739V19.5211Z" fill="#0A2847"/>
<path d="M17.201 17.199C15.8457 18.7774 13.2881 21.3639 9.3339 21.3639C3.95213 21.3639 0 17.7072 0 11.466C0 5.73718 4.7248 2.56183 7.78445 1.38011L8.0365 1.50613C5.15038 3.41919 3.59886 5.7351 3.59886 9.76988C3.59886 13.3295 4.87561 15.8644 6.80107 17.3457L7.44976 16.9056V7.99111C7.44976 6.38174 7.15846 5.25168 6.67503 4.85708V4.72694C9.04053 3.62166 11.4887 1.88214 13.1848 0.332688C13.7075 0.944206 14.3562 1.21277 15.1722 1.21277C16.0606 1.21277 16.6577 0.898746 17.0543 0.607449L17.201 0.7314C17.1225 2.55149 16.1556 4.24557 13.8748 4.24557C12.4514 4.24557 11.6767 3.76627 10.966 2.94816L10.8606 2.96881V15.0236C9.74709 15.6475 7.92907 16.8932 7.05311 17.5543C8.35672 18.4551 10.2574 18.6204 12.2014 18.6204C14.0194 18.6204 15.633 17.9097 17.0977 16.8871L17.201 17.199V17.199Z" fill="#0A2847"/>
<path d="M72.6075 18.4117V9.74922C71.9009 9.31124 70.7605 8.42082 70.3081 8.05515L69.9734 8.24314V16.9056C70.4589 17.1907 71.3968 17.9097 72.2769 18.5997L72.6075 18.4117V18.4117ZM76.3365 8.91045C75.915 9.10052 75.6671 9.68517 75.6671 10.8813V17.1143C74.4234 17.6597 71.5848 19.2443 70.1614 20.3785C68.676 19.2938 67.9013 18.705 66.2485 17.8043V17.7444C66.6679 17.4903 66.9406 16.8003 66.9406 15.7136V9.56121C68.8433 8.64187 70.9134 7.3424 72.3802 6.27638C73.3223 6.9664 75.1858 8.24314 76.3365 8.85053V8.91045V8.91045Z" fill="#0A2847"/>
<path d="M61.0795 17.7444V9.66656C60.059 9.03645 59.1768 8.39188 58.7574 8.0324L58.4434 8.22248V16.8436C58.9558 17.137 60.0445 17.922 60.5362 18.2877L61.0795 17.7444V17.7444ZM65.3684 19.3744C65.3684 20.1904 64.2074 21.0478 62.9637 22.0498C61.3357 23.3699 60.4949 24 60.4949 24C59.6871 23.5435 59.2223 23.4133 58.0261 23.4133C56.5159 23.4133 55.6606 23.5703 54.5946 24L54.5305 23.9773C55.3899 22.3762 57.0964 21.0478 59.4888 21.0478C60.5569 21.0478 61.7634 21.492 62.5463 22.0126C62.755 21.8804 63.4244 21.3908 63.4244 21.0292C63.4244 19.9591 61.4514 20.0603 61.1229 18.0997L58.8628 20.3784C57.8691 19.5934 55.8548 18.3084 54.7805 17.7444V17.6597C55.2433 17.3642 55.4313 16.9655 55.4313 15.9429V9.56119C57.646 8.39394 59.6747 7.22463 60.9143 6.27636C61.8853 7.08414 63.7673 8.28237 64.8044 8.85051V8.91043C64.3251 9.20586 64.1557 9.66656 64.1557 11.34V16.4036C64.1557 18.0997 65.3684 17.9716 65.3684 19.3744" fill="#0A2847"/>
<path d="M49.1942 18.1204V12.5299C47.3741 12.7469 46.3494 14.0381 46.3494 15.6516C46.3494 16.8808 47.2274 18.139 48.5682 18.5563L49.1942 18.1204ZM49.1942 12.2614V9.76984C48.4484 9.34013 47.1717 8.45177 46.6015 7.99107L46.2668 8.20181C46.3701 9.67688 46.5746 11.6065 47.5621 12.5981C47.9216 12.4742 48.7645 12.3109 49.1942 12.2614ZM54.4479 17.639L51.7684 20.3371C51.1155 19.7938 49.8388 18.8951 49.1116 18.5398H49.0909C48.1799 19.1864 47.4444 19.7339 46.5581 20.3578C44.9694 19.8351 43.6926 18.4055 43.6926 16.7403C43.6926 14.4967 45.5003 13.3419 47.1655 12.7427V12.72C45.7317 12.0258 44.5583 10.7099 44.236 9.12115L48.8389 6.27635C49.7417 7.04695 51.8118 8.39187 52.9625 9.03851V9.10048C52.3964 9.47855 52.2518 9.94132 52.2518 11.1313V17.4489L53.4645 18.2257L54.2392 17.4303L54.4479 17.639Z" fill="#0A2847"/>
<path d="M149.283 17.6597L146.603 20.3785C145.932 19.8496 144.845 19.1492 144.24 18.8104V9.54055C143.793 9.26991 143.105 8.74517 142.816 8.49313L141.56 9.76987V17.5771C141.971 17.7547 142.564 18.1163 142.858 18.3291V18.3931L140.913 20.3785C140.205 19.7855 138.945 18.9798 137.877 18.4117V18.3497C138.317 18.0997 138.527 17.5771 138.527 16.3809V9.58188L137.085 8.43115L136.308 9.22654L136.118 9.03853L138.798 6.29703C139.267 6.79698 140.606 7.88574 141.56 8.47246V9.29058L144.405 6.29703C145.39 7.07175 146.979 8.0882 147.9 8.64187V8.70591C147.398 8.97655 147.252 9.64592 147.252 10.838V17.5771L148.297 18.2671L149.092 17.4696L149.283 17.6597V17.6597Z" fill="#0A2847"/>
<path d="M137.333 17.5977L134.674 20.3578C133.96 19.7731 132.763 18.9716 132.059 18.579V17.6142L129.026 20.3785C127.811 19.3744 126.787 18.7237 125.7 18.1844V18.1204C126.26 17.8167 126.39 17.261 126.39 15.9429V9.08191L125.427 8.40842L124.611 9.24719L124.403 9.0592L127.059 6.29703C127.572 6.73914 128.679 7.52833 129.404 7.86714V17.325C129.716 17.5006 130.321 17.9097 130.826 18.3043L132.038 17.1763C132.038 17.1763 132.036 11.2346 132.038 9.0592C131.71 8.80302 131.088 8.47246 130.782 8.32578V8.26381C131.309 7.81756 132.284 6.87342 132.728 6.29703C133.47 6.89408 134.962 7.80104 135.724 8.22249V8.26381C135.259 8.47866 135.073 8.97656 135.073 10.0612V17.449L136.414 18.2051L137.166 17.4304L137.333 17.5977V17.5977Z" fill="#0A2847"/>
<path d="M111.68 2.25812C111.063 2.68784 110.232 3.60511 109.858 4.1216C109.563 3.75799 108.792 2.94401 107.997 2.34282C108.528 1.91104 109.445 0.966897 109.858 0.357446C110.28 0.892524 111.176 1.83047 111.68 2.25812Z" fill="#0A2847"/>
<path d="M113.647 17.5977L110.968 20.3785C110.168 19.738 108.827 18.8476 107.954 18.3931V18.3291C108.414 18.0336 108.604 17.449 108.604 16.5709V9.08191L107.621 8.39189L106.867 9.16249L106.677 8.97656L109.294 6.25572C110.028 6.96227 111.482 7.8093 112.244 8.20183V8.24314C111.815 8.49932 111.616 8.91044 111.616 10.024V17.5977L112.662 18.2258L113.459 17.4077L113.647 17.5977V17.5977Z" fill="#0A2847"/>
<path d="M106.867 7.13168C106.772 8.22043 105.799 9.62525 104.586 9.62525C103.7 9.62525 103.018 9.22654 102.557 8.57577L102.243 8.89185V17.0317C102.981 17.3808 103.945 17.9593 104.354 18.2258L105.129 17.4304L105.34 17.6142L102.621 20.3785C101.359 19.424 99.6441 18.3394 98.6236 17.827V17.8043C99.0698 17.6452 99.2516 17.2796 99.2516 16.5544V9.56121L97.9108 8.39189L97.1588 9.20588L96.9688 9.0158L99.5429 6.29703C100.311 7.14406 101.601 8.12539 102.202 8.55717L104.336 6.31976C104.737 6.81351 105.175 7.23703 105.927 7.23703C106.218 7.23703 106.532 7.1544 106.763 7.05111L106.867 7.13168V7.13168Z" fill="#0A2847"/>
<path d="M98.7064 0.582612C98.4089 2.89853 97.4565 4.96034 95.0021 4.96034C94.7108 4.96034 94.1654 4.91696 93.9774 4.8963V18.6203C95.4628 18.4117 97.2767 17.6906 97.9957 17.1142L98.101 17.3849C96.9792 18.9922 93.8907 21.4486 90.0645 21.4486C85.2282 21.4486 81.4847 18.2629 81.4847 13.1167C81.4847 8.68522 85.1435 5.48922 87.5317 4.64425L87.7404 4.72689C86.0732 6.24536 84.8956 8.31335 84.8956 11.5713C84.8956 14.288 86.005 16.0895 87.699 17.4303L88.451 16.949V10.2099C88.451 8.78852 88.3312 7.74521 87.511 7.44565V7.34237C88.6039 6.88993 90.6223 5.89415 91.864 5.12562V15.04C90.7587 15.6474 88.8952 16.9159 87.9511 17.639C89.0398 18.3931 90.6285 18.7691 92.2813 18.7691C92.8494 18.7691 93.1118 18.7401 93.7481 18.643V4.87151C90.736 4.62153 87.5255 3.37162 85.0629 3.37162C83.3337 3.37162 82.0301 4.07818 82.0301 5.39625C82.0301 6.1937 82.6561 6.53665 83.0548 6.71638L82.7201 6.90233C81.9847 6.56971 81.0674 5.77018 81.0674 4.07818C81.0674 1.61558 83.0486 2.26864e-05 85.7116 2.26864e-05C89.3952 2.26864e-05 92.8597 1.94407 96.1115 1.94407C97.1156 1.94407 98.0453 1.41312 98.5184 0.437997L98.7064 0.582612Z" fill="#0A2847"/>
<path d="M155.83 11.7366C155.4 11.1272 154.045 9.10877 153.446 8.1605L153.237 8.32578V13.472L155.83 11.7366ZM158.635 10.2926C156.892 11.3607 154.817 12.7324 153.237 13.8708V16.825C153.935 17.137 155.135 17.8787 155.685 18.2444L157.106 16.7796L157.294 16.949L153.97 20.3785C152.937 19.6327 150.917 18.3456 149.489 17.5771V17.5151C149.948 17.3849 150.204 16.7176 150.204 15.2529V9.56121C152.169 8.68112 153.989 7.47049 155.454 6.27638L158.635 10.2926V10.2926Z" fill="#0A2847"/>
<path d="M120.448 18.3931V9.62525L118.793 8.49313L117.81 9.4352V16.887L120.049 18.5997L120.448 18.3931V18.3931ZM124.15 8.93317C123.638 9.14596 123.504 9.79053 123.504 11.2801V17.1597C122.204 17.6142 119.337 19.1038 117.998 20.3785C116.99 19.676 115.382 18.5749 114.083 17.8043V17.7444C114.69 17.4076 114.775 16.8436 114.775 15.1454V2.5928C114.775 1.6528 114.608 1.17145 114.397 0.795445L114.525 0.731389C114.965 1.10739 115.259 1.54744 115.382 2.15276H115.426C116.099 1.03096 116.938 0.309952 118.562 0.103358L118.585 0.227309C118.132 0.785113 117.81 1.28093 117.81 2.36348V9.03853L120.384 6.29703C121.159 6.99118 123.152 8.25347 124.15 8.87119V8.93317V8.93317Z" fill="#0A2847"/>
</g>
<defs>
<clipPath id="clip0">
<rect width="158.635" height="24" fill="white"/>
</clipPath>
</defs>
</svg>
