<svg width="169" height="24" viewBox="0 0 169 24" fill="none" xmlns="http://www.w3.org/2000/svg">
<g clip-path="url(#clip0)">
<path d="M148.286 3.14286C148.286 1.48571 148.8 0.914286 149.657 0.914286C150.514 0.914286 151.2 1.25714 152 3.14286L156.857 14.1714V21.1429C156.857 22.8 156.171 23.2571 154.286 23.4857V23.9429H163.257V23.4857C161.314 23.2571 160.686 22.7429 160.686 21.1429V14.1714L165.371 3.54286C166.286 1.48571 167.2 1.02857 168.571 0.8V0.342857H162V0.8C164.229 1.02857 165.029 1.65714 164.4 3.14286L160.286 12.5714L156.057 2.91429C155.486 1.6 155.829 1.2 158.286 0.857143V0.4H144.171V0.857143C146.4 1.2 147.086 1.6 147.086 3.2V16.1143L136.743 0.4H131.657V0.857143C133.314 1.08571 133.829 1.6 133.829 3.2V21.2C133.829 22.8571 133.371 23.4286 132.8 23.4286C132.286 23.4286 132 23.2 131.257 21.2L123.6 0.285714H123.143L115.771 20.2857C114.971 22.5143 113.714 23.2571 112.457 23.5429V24H119.2V23.5429C116.857 23.3143 116.114 22.4 116.629 20.9143L118.286 16.3429H125.257L126.857 20.6286C127.543 22.5714 127.143 23.1429 125.143 23.4857V23.9429H137.943V23.4857C135.714 23.1429 135.029 22.7429 135.029 21.1429V5.02857L147.543 24H148.286V3.14286ZM58.0571 12.1143C58.0571 4.8 61.5429 0.971429 65.6 0.971429C68 0.971429 69.5429 1.48571 70.4571 2.45714C71.1429 3.14286 71.6571 4.11429 72.2286 5.65714H72.6857V0.742857C70.3429 0.285714 68.2286 0 66.1143 0C60 0 53.6571 3.94286 53.6571 12.1143C53.6571 20.2857 60 24.2286 65.7143 24.2286C68.2286 24.2286 70.4571 23.8286 72.5714 23.2L73.2571 18.5714L72.8571 18.4571C72.3429 19.4286 71.7143 20.2857 71.0286 21.0286C69.5429 22.5143 67.5429 23.3143 65.5429 23.3143C61.6571 23.2571 58.0571 19.5429 58.0571 12.1143ZM108.743 12.8C108.229 12.8 107.543 12.7429 106.857 12.6286V1.2H108.743C111.886 1.2 113.257 2.85714 113.257 6.97143C113.257 11.1429 111.829 12.8 108.743 12.8ZM35.3143 0.342857V6H35.7714C36.4571 2.4 37.8857 1.25714 40.2857 1.25714H41.4286V21.1429C41.4286 22.8 40.7429 23.2571 38.8571 23.4857V23.9429H47.8286V23.4857C45.8857 23.2571 45.2571 22.7429 45.2571 21.1429V1.2H46.4C48.8 1.2 50.2286 2.34286 50.9143 5.94286H51.3714V0.285714H35.3143V0.342857ZM28.1714 24.2286C32.0571 24.2286 36.1714 22 36.1714 17.4286C36.1714 14.7429 34.7429 12.5143 32.2286 11.1429L27.7714 8.68571C25.4286 7.37143 24.7429 6.17143 24.7429 4.45714C24.7429 2.51429 26.1714 0.971429 28.8571 0.971429C30.1714 0.971429 31.1429 1.31429 31.9429 2.05714C32.6286 2.74286 33.3143 3.88571 33.9429 5.94286H34.3429V0.742857C32.7429 0.285714 31.0857 0 29.1429 0C25.3143 0 22.4571 2.4 22.4571 6.45714C22.4571 9.02857 23.8857 11.3714 26.2286 12.7429L30.3429 15.0286C32.6857 16.3429 33.4286 17.6 33.4286 19.4857C33.4286 21.7143 31.1429 23.3143 28.6286 23.3143C26.9714 23.3143 25.6 22.7429 24.6286 21.7714C24 21.1429 23.3143 20.1714 22.8571 18.9143H25.5429V18.4571C24.8 18.2857 24.3429 18.1714 23.7143 16.6857L18.4571 4.17143H18L12.8571 16.4C12.1714 18.0571 11.7143 18.3429 10.9143 18.4571V18.9143H15.4857V18.4571C13.8286 18.2857 13.3714 17.4857 13.7714 16.4571L14.5714 14.5143H19.2L20.2286 16.9143C20.6857 18 20 18.2857 18.3429 18.4V18.8571H22V23.3714C23.8286 23.8857 26.1714 24.2286 28.1714 24.2286ZM86.2286 24L93.0286 5.08571L93.5428 21.2C93.6 22.8 92.9714 23.2571 91.0286 23.4857V23.9429H109.771V23.4857C107.543 23.1429 106.857 22.7429 106.857 21.1429V13.5429C107.6 13.6571 108.343 13.7143 108.914 13.7143C113.429 13.7143 117.314 12.0571 117.314 7.02857C117.314 2 113.429 0.342857 108.914 0.342857H100.857V0.8C102.514 1.02857 103.029 1.54286 103.029 3.14286V21.1429C103.029 22.8 102.343 23.4857 100.457 23.4857H100.4C98.4 23.4857 97.5429 22.7429 97.4857 21.2L96.8 3.2C96.7428 1.54286 97.3143 1.02857 99.0857 0.8V0.342857H93.5428L87.4857 17.3143L81.4286 0.342857H75.4857V0.8C77.2571 1.02857 77.8286 1.6 77.7714 3.2L77.1429 20.4571C77.0857 22.1714 76.1714 23.2 74.5143 23.4857V23.9429H80.8V23.4857C79.2 23.2571 78.2857 22.2286 78.3429 20.4571L78.8571 4.74286L85.7714 23.9429L86.2286 24ZM68 19.0286C71.0286 19.0286 74.9143 16.3429 74.9143 12.1143C74.9143 7.94286 71.0857 5.2 68 5.2C64.9714 5.2 61.0857 7.88572 61.0857 12.1143C61.0857 16.2857 64.9143 19.0286 68 19.0286ZM68 6.17143C69.9429 6.17143 71.2571 7.77143 71.2571 12.1143C71.2571 16.5143 69.8857 18.0571 68 18.0571C66.0571 18.0571 64.7429 16.4571 64.7429 12.1143C64.7429 7.71429 66.0571 6.17143 68 6.17143ZM124.971 15.3714H118.629L121.771 6.68571L124.971 15.3714ZM18.9143 13.6H15.0286L16.9714 8.85714L18.9143 13.6ZM11.4857 14.8H11.9429V7.71429H11.4857C10.7429 10.2286 10 10.8 8.62857 10.8H6V1.2H10.1714C12.5714 1.2 14 2.34286 14.6857 5.94286H15.1429V0.285714H0V0.742857C1.65714 0.971429 2.17143 1.48571 2.17143 3.08571V21.0857C2.17143 22.7429 1.65714 23.2 0 23.4286V23.8857H8.91429V23.4286C6.68571 23.0857 6 22.6857 6 21.0857V11.6571H8.62857C9.94286 11.7143 10.7429 12.2857 11.4857 14.8Z" fill="#0A2847"/>
</g>
<defs>
<clipPath id="clip0">
<rect width="168.571" height="24" fill="white"/>
</clipPath>
</defs>
</svg>
