<svg width="104" height="24" viewBox="0 0 104 24" fill="none" xmlns="http://www.w3.org/2000/svg">
<g clip-path="url(#clip0)">
<path d="M18.9841 7.97561e-05C17.0043 0.00832279 15.0348 1.04999 14.0518 3.12449L13.5977 4.08204V11.9942V19.9064L14.0518 20.8639C14.7565 22.3512 15.8474 23.2902 17.4824 23.8085C18.6541 24.18 20.5219 23.9842 21.7133 23.3679C22.4861 22.9682 23.5797 21.778 24.0018 20.8774L24.3885 20.0502V11.9942V3.93818L23.9659 3.08403C22.9512 1.01785 20.9639 -0.00816041 18.9841 7.97561e-05ZM19.074 3.9202C19.1456 3.92063 19.2172 3.92772 19.2853 3.94268C19.5136 3.99281 19.8944 4.25747 20.1351 4.53159L20.5757 5.0306V11.9582V18.8859L20.252 19.3579C20.074 19.6187 19.7396 19.898 19.5101 19.9783C19.2807 20.0586 19.0217 20.1233 18.9346 20.1222C18.5879 20.1175 18.0497 19.734 17.7386 19.2725L17.4104 18.787V12.0122C17.4109 5.5454 17.4212 5.21389 17.6892 4.77435C18.0062 4.2545 18.5728 3.91683 19.074 3.9202Z" fill="#0A2847"/>
<path d="M64.3456 23.7333C62.6778 23.1148 61.5823 22.0494 60.9509 20.432C60.7288 19.8628 60.7064 18.9016 60.7103 10.0742L60.7146 0.34386L62.6579 0.303835L64.6012 0.263809L64.6033 9.58265C64.605 16.784 64.6466 18.9832 64.7866 19.2611C64.8863 19.4589 65.1967 19.7442 65.4766 19.895C66.1053 20.2338 66.6322 20.1297 67.2095 19.5525L67.6227 19.1394V9.70161V0.263809L69.5674 0.303835L71.5121 0.34386L71.5117 10.0797C71.5112 19.5935 71.5044 19.8337 71.2114 20.6167C70.7881 21.7479 69.7083 22.8833 68.5082 23.4594C67.2569 24.0599 65.5324 24.1734 64.3456 23.7333H64.3456Z" fill="#0A2847"/>
<path d="M0 11.9963V0.271942H4.81991H9.63983V2.28595V4.29995H6.83421H4.02858V7.04067V9.78138L5.79109 9.7569L7.5536 9.73241L7.59363 11.6916L7.63366 13.6507H5.83112H4.02858V18.6857V23.7207H2.01429H0V11.9963V11.9963Z" fill="#0A2847"/>
<path d="M29.7827 11.9963V0.271942H32.7739C36.0311 0.271942 36.9226 0.406818 38.0563 1.0711C38.9114 1.57219 39.8052 2.57966 40.2599 3.55503C40.6278 4.34411 40.6424 4.47555 40.6893 7.42167C40.7282 9.87342 40.6924 10.6485 40.5064 11.3742C40.238 12.422 39.7487 13.315 39.0727 13.9909L38.5947 14.4688L39.8559 18.7871C40.5495 21.1622 41.161 23.2438 41.2147 23.4131C41.3114 23.7177 41.2917 23.7207 39.2361 23.7207H37.1598L36.5555 21.383C35.9533 19.0535 34.4159 13.2172 34.2855 12.7659C34.236 12.5949 34.3365 12.5021 34.6446 12.4345C35.2154 12.3091 36.2467 11.4094 36.4918 10.8229C36.634 10.4824 36.6888 9.62633 36.6888 7.74609V5.14097L36.2683 4.72046C35.8775 4.32969 35.7706 4.29995 34.7576 4.29995H33.6674V14.0103V23.7207H31.7251H29.7827V11.9963V11.9963Z" fill="#0A2847"/>
<path d="M48.6291 23.6128C48.6283 23.5535 48.6121 19.2 48.5932 13.9384L48.5587 4.37188L46.7962 4.33149L45.0337 4.2911V2.28152V0.271942H50.501H55.9684V2.28595V4.29995H54.2419H52.5153V14.0103V23.7207H50.573C49.5047 23.7207 48.63 23.6722 48.6291 23.6128Z" fill="#0A2847"/>
<path d="M76.687 11.9963V0.271931H78.6716H80.6561L80.8094 0.811397C80.8937 1.1081 81.549 3.19583 82.2655 5.4508C82.9821 7.70576 83.7732 10.2143 84.0236 11.0253C84.2739 11.8363 84.5398 12.4998 84.6144 12.4998C84.6974 12.4998 84.7465 10.1385 84.7408 6.42184L84.7316 0.34386L86.6803 0.303834L88.6289 0.263809V11.9923V23.7207H86.4286H84.2284L83.8164 22.39C83.5899 21.6581 83.1908 20.3888 82.9295 19.5694C82.6683 18.7499 82.0847 16.8887 81.6325 15.4335C81.1804 13.9782 80.7568 12.7875 80.6911 12.7875C80.6254 12.7875 80.5717 15.2475 80.5717 18.2541V23.7207H78.6294H76.687V11.9963H76.687Z" fill="#0A2847"/>
<path d="M93.8086 11.9963V0.271942H98.6285H103.448V2.28595V4.29995H100.568H97.687L97.7261 6.99728L97.7653 9.69461H99.5999H101.434L101.434 11.6726L101.434 13.6507H99.5637H97.6933V16.6717V19.6927H100.571H103.448V21.7067V23.7207H98.6285H93.8086V11.9963H93.8086Z" fill="#0A2847"/>
</g>
<defs>
<clipPath id="clip0">
<rect width="103.448" height="24" fill="white"/>
</clipPath>
</defs>
</svg>
