<svg width="284" height="24" viewBox="0 0 284 24" fill="none" xmlns="http://www.w3.org/2000/svg">
<g clip-path="url(#clip0)">
<path d="M281.718 20.7036C280.894 20.7036 280.207 21.3906 280.207 22.3178C280.207 23.2446 280.894 23.9316 281.718 23.9316C282.541 23.9316 283.228 23.2446 283.228 22.3178C283.228 21.3906 282.541 20.7036 281.718 20.7036ZM227.057 23.8281H233.992V23.2104L233.237 23.0386C232.55 22.8667 232.241 22.4893 232.241 21.5274V12.189H233.855C234.851 12.189 235.366 12.4292 235.434 14.5239L235.606 18.9185C235.743 22.8667 236.876 23.9658 238.8 23.9658C240.756 23.9658 241.271 22.6265 241.271 20.7383V19.9483H240.55V20.5318C240.55 21.8027 240.379 22.6953 239.897 22.6953C239.452 22.6953 239.417 22.352 239.314 20.7725L239.108 17.7514C238.833 13.6997 238.318 12.292 235.331 11.7422C238.181 10.9873 239.932 8.89259 239.932 5.9053C239.932 2.02542 236.876 0.171407 233.958 0.171407H222.25V0.789555L222.902 0.926767C224.138 1.20165 224.173 1.85401 224.173 4.63524V18.3003C224.173 21.3564 223.314 22.8325 221.356 22.8325C219.606 22.8325 218.644 21.9741 218.644 18.6436V2.40331C218.644 1.44189 218.953 1.16747 219.708 0.995611L220.636 0.789555V0.171407H213.46V0.789555L214.215 0.995611C214.902 1.20166 215.142 1.47653 215.142 2.43751V18.4033C215.142 22.0083 217.237 24 220.43 24C223.623 24 225.202 22.0083 225.202 18.3003V3.39895C225.202 1.54494 225.58 0.892572 227.09 0.892572C228.292 0.892572 228.808 1.30467 228.808 2.43751V21.5274C228.808 22.4893 228.499 22.8325 227.812 23.0044L227.057 23.2104V23.8281V23.8281ZM273.134 2.43751C273.134 1.47653 273.443 1.16747 274.129 1.02981L275.057 0.823749V0.171407H267.915V0.789555L268.67 0.995611C269.357 1.20166 269.666 1.47653 269.666 2.43751V21.6655C269.666 22.5923 269.289 23.1074 268.224 23.1074C266.988 23.1074 266.816 22.6953 266.37 20.6699L261.975 0.103017H260.601L256.413 20.0171C255.932 22.2486 255.692 22.7641 254.765 23.0386L254.181 23.2104V23.8281H259.091V23.2104L258.37 23.0728C257.34 22.8667 257.065 22.3178 257.58 19.708L260.053 6.96973L262.765 20.4634C263.177 22.4204 263.143 22.7983 261.666 23.0728L260.945 23.2104V23.8281H279.142V16H278.49C278.147 19.605 277.426 23.0044 274.508 23.0044H273.134V2.43751V2.43751ZM262.421 17.4419V16.5151H257.786L257.649 17.4419H262.421ZM243.263 2.84962V19.2617C243.263 21.7339 243.263 22.9013 242.027 23.1074L241.409 23.2104V23.8281H246.456V23.2104C244.258 22.9014 244.258 22.146 244.258 19.4678V3.87986L243.434 3.1245L251.847 23.8281H253.288V4.73826C253.288 1.92283 253.288 1.30467 254.662 0.926767L255.143 0.789555V0.171407H249.957V0.789555L250.541 0.926767C252.292 1.23584 252.292 1.92284 252.292 4.53223V16.4805L252.636 16.3775L246.25 0.171407H241.34V0.789555L241.82 0.926767C242.37 1.09862 242.679 1.71679 243.263 2.84962V2.84962ZM232.241 0.995611H233.615C234.988 0.995611 236.258 1.88821 236.258 6.35204C236.258 10.9185 235.297 11.3647 233.374 11.3647H232.241V0.995611ZM209.374 11.7768C209.374 21.6992 208.55 23.1074 206.765 23.1074C204.979 23.1074 204.189 21.6992 204.189 11.8452C204.189 2.30029 205.048 0.926767 206.765 0.926767C208.55 0.926767 209.374 2.30029 209.374 11.7768ZM213.117 11.9829C213.117 5.42481 211.022 0 206.765 0C202.473 0 200.447 5.42481 200.447 11.9829C200.447 18.5752 202.541 24 206.765 24C211.125 24 213.117 18.5752 213.117 11.9829ZM198.422 2.43751C198.422 1.47653 198.662 1.16747 199.348 0.995611L200.103 0.789555V0.171407H192.997V0.789555L193.854 0.995611C194.541 1.16747 194.919 1.4077 194.919 2.40331V18.9185C194.919 21.2188 194.713 23.0728 192.997 23.0728C191.897 23.0728 191.074 22.2144 191.108 21.5967C191.21 20.5318 192.996 20.601 193.134 18.8838C193.237 17.6479 192.447 17.1328 191.726 17.0303C190.662 16.8926 189.357 17.7852 189.322 19.5708C189.288 21.8711 190.799 23.9658 193.374 23.9658C196.224 23.9658 198.422 22.0429 198.422 18.3687V2.43751V2.43751ZM83.7427 2.43751C83.7427 1.47653 84.0517 1.16747 84.7383 1.02981L85.6655 0.823749V0.171407H78.5239V0.789555L79.2793 0.995611C79.9658 1.20166 80.2749 1.47653 80.2749 2.43751V21.6655C80.2749 22.5923 79.897 23.1074 78.8325 23.1074C77.5967 23.1074 77.3906 22.6953 76.9443 20.6699L72.5493 0.103017H71.1762L66.9873 20.0171C66.5068 22.2486 66.2661 22.7641 65.3393 23.0386L64.7554 23.2104V23.8281H69.6655V23.2104L68.9443 23.0728C67.9145 22.8667 67.6396 22.3178 68.1548 19.708L70.6269 6.90091L73.3393 20.4634C73.7168 22.4204 73.7168 22.7983 72.2407 23.0728L71.5195 23.2104V23.8281H89.7514V16H89.0991C88.7558 19.605 88.0346 23.0044 85.1162 23.0044H83.7427V2.43751V2.43751ZM179.331 0.995611H180.086C182.216 0.995611 182.936 4.39456 183.177 8H183.829V0.171407H171.365V8H172.018C172.258 4.39456 172.979 0.995611 175.108 0.995611H175.863V21.5274C175.863 22.4893 175.555 22.8325 174.868 23.0044L173.975 23.2104V23.8281H181.392V23.2104L180.327 22.9702C179.674 22.7983 179.331 22.5923 179.331 21.5274V0.995611V0.995611ZM163.64 11.9483L164.704 11.9829C166.249 12.0171 166.695 12.6011 167.005 16.3437H167.657V6.79833H167.005C166.627 9.78562 166.215 11.0557 164.739 11.0903L163.64 11.1245V0.995633H166.009C168.653 0.995633 169.237 4.32619 169.614 8.00002H170.267V0.171428H158.421V0.789576L159.177 0.995633C159.966 1.20168 160.172 1.68262 160.172 2.47218V21.5274C160.172 22.4893 159.864 22.8325 159.177 23.0044L158.421 23.2105V23.8281H170.61V16H169.957C169.545 19.5708 169.099 23.0044 166.009 23.0044H163.64V11.9483V11.9483ZM150.696 11.9483L151.76 11.9829C153.305 12.0171 153.751 12.6011 154.061 16.3437H154.713V6.79833H154.061C153.683 9.78562 153.271 11.0557 151.795 11.0903L150.696 11.1245V0.995633H153.065C155.709 0.995633 156.292 4.39458 156.67 8.00002H157.322V0.171428H145.134V0.789576L146.232 0.995633C147.022 1.20168 147.228 1.68262 147.228 2.47218V21.5274C147.228 22.4893 146.919 22.8325 146.232 23.0044L145.477 23.2105V23.8281H157.665V16H157.014C156.601 19.5708 156.155 23.0044 153.065 23.0044H150.696V11.9483V11.9483ZM136.584 0.995611H137.614C138.987 0.995611 140.258 1.88821 140.258 6.35204C140.258 10.8496 139.297 11.3647 137.374 11.3647H136.584V0.995611ZM131.399 23.8281H138.335V23.2104L137.58 23.0386C136.893 22.8667 136.584 22.4893 136.584 21.5274V12.189H137.854C138.85 12.189 139.365 12.6011 139.434 14.5239L139.605 18.9185C139.743 22.8667 140.876 23.9658 142.799 23.9658C144.756 23.9658 145.271 22.6265 145.271 20.7383V19.9483H144.55V20.5318C144.55 21.8027 144.378 22.6953 143.897 22.6953C143.451 22.6953 143.416 22.352 143.314 20.7725L143.107 17.7514C142.833 13.5967 142.284 12.292 139.331 11.7422C142.181 10.9873 143.932 8.89259 143.932 5.9053C143.932 2.02542 140.876 0.171407 137.957 0.171407H131.399V0.789555L132.155 0.995611C132.842 1.20166 133.15 1.47653 133.15 2.43751V21.5274C133.15 22.4893 132.842 22.8325 132.155 23.0044L131.399 23.2104V23.8281V23.8281ZM126.146 0.995611H126.902C129.03 0.995611 129.751 4.39456 129.992 8H130.644V0.171407H118.181V8H118.833C119.073 4.39456 119.794 0.995611 121.923 0.995611H122.679V21.5274C122.679 22.4893 122.369 22.8325 121.683 23.0044L120.79 23.2104V23.8281H128.035V23.2104L127.142 23.0044C126.249 22.7983 126.146 22.1118 126.146 21.5274V0.995611V0.995611ZM118.215 17.6821C118.215 10.6436 110.49 8.78956 110.49 3.67383C110.49 2.57519 110.902 0.926767 112.618 0.926767C115.09 0.926767 116.018 4.12012 116.43 8H117.082V0.171407H116.67C116.498 0.926777 116.189 1.27049 115.743 1.27049C114.953 1.27049 114.541 0.0341946 112.653 0.0341946C109.734 0.0341946 107.743 2.47215 107.743 5.66505C107.743 11.4678 115.468 13.9053 115.468 19.2617C115.468 21.6993 114.335 23.0728 112.79 23.0728C110.49 23.0728 108.979 20.3608 108.567 16H107.915V23.8281H108.327C108.67 22.6953 109.116 22.5923 109.494 22.5923C110.146 22.5923 110.833 23.9658 112.824 23.9658C115.88 23.9658 118.215 21.3222 118.215 17.6821V17.6821ZM95.7256 2.43751C95.7256 1.47653 96.0346 1.16747 96.7212 1.02981L97.6484 0.823749V0.171407H90.5068V0.789555L91.2622 0.995611C91.9487 1.20166 92.2578 1.47653 92.2578 2.43751V21.5274C92.2578 22.4893 91.9487 22.8325 91.2622 23.0044L90.5068 23.2104V23.8281H101.734V16H101.082C100.739 19.605 100.018 23.0044 97.0991 23.0044H95.7256V2.43751V2.43751ZM72.9956 17.4419V16.5151H68.3608L68.2231 17.4419H72.9956ZM53.1504 23.897H54.5581L57.751 7.00438H57.2705L60.7725 23.897H62.0088L66.1977 3.9829C66.644 1.8882 66.8843 1.16746 67.7085 0.960961L68.3608 0.789555V0.171407H63.5195V0.789555L64.2407 0.926767C65.2705 1.13282 65.5107 1.75097 65.0303 4.29152L62.3178 17.6479H62.7299L59.9829 3.57079C59.708 2.23146 59.5366 1.13282 60.6699 0.926767L61.4248 0.789555V0.171407H54.7983V0.789555L55.2446 0.892572C55.9316 1.06398 56.0346 1.47654 56.3091 2.78123L57.3735 7.89696L57.1675 4.80665L54.7983 17.3047H55.1074L52.3262 3.57079C52.0171 2.16307 51.9141 1.09862 53.0127 0.892572L53.5283 0.789555V0.171407H46.7641V0.789555L47.4165 0.960961C48.0342 1.13282 48.3779 1.4419 48.79 3.3301L53.1504 23.897V23.897ZM34.8154 11.9483L35.8799 11.9829C37.4248 12.0171 37.8711 12.6011 38.1802 16.3437H38.8325V6.79833H38.1802C37.8027 9.78562 37.3906 11.0557 35.9141 11.0903L34.8154 11.1245V0.995633H37.1846C39.8281 0.995633 40.4121 4.39458 40.7896 8.00002H41.4419V0.171428H29.5967V0.789576L30.352 0.995633C31.1416 1.20168 31.3477 1.68262 31.3477 2.47218V21.5274C31.3477 22.4893 31.0386 22.8325 30.352 23.0044L29.5967 23.2105V23.8281H41.7856V16H41.1328C40.7212 19.5708 40.2749 23.0044 37.1846 23.0044H34.8154V11.9483V11.9483ZM13.2188 23.8281H20.2573V23.2104L19.4678 23.0386C18.8496 22.9014 18.4375 22.4893 18.4375 21.5274V12.1548H23.6221V21.5274C23.6221 22.4893 23.2104 22.9014 22.5923 23.0386L21.8027 23.2104V23.8281H28.8413V23.2104L28.0859 23.0044C27.3994 22.8325 27.0899 22.4546 27.0899 21.4936V2.43751C27.0899 1.47653 27.3994 1.16747 28.0859 0.995611L28.8413 0.789555V0.171407H21.8027V0.789555L22.5923 0.995611C23.1758 1.16747 23.6221 1.4077 23.6221 2.40331V11.2275H18.4375V2.40331C18.4375 1.44189 18.8154 1.16747 19.4678 0.995611L20.2573 0.789555V0.171407H13.2188V0.789555L13.9741 0.995611C14.6611 1.20166 14.9697 1.47653 14.9697 2.43751V21.5274C14.9697 22.4893 14.6611 22.8325 13.9741 23.0044L13.2188 23.2104V23.8281ZM7.96536 0.995611H8.72118C10.8496 0.995611 11.5708 4.39456 11.811 8H12.4634V0.171407H0V8H0.652345C0.89259 4.39456 1.61377 0.995611 3.74222 0.995611H4.49759V21.5274C4.49759 22.4893 4.18896 22.8325 3.50197 23.0044L2.60938 23.2104V23.8281H10.0259V23.2104L8.96142 22.9702C8.30908 22.7983 7.96536 22.5923 7.96536 21.5274V0.995611V0.995611Z" fill="#0A2847"/>
</g>
<defs>
<clipPath id="clip0">
<rect width="283.228" height="24" fill="white"/>
</clipPath>
</defs>
</svg>
